<?xml version="1.0" encoding="UTF-8" standalone="no"?>
<!-- Created with Inkscape (http://www.inkscape.org/) -->

<svg
   xmlns:dc="http://purl.org/dc/elements/1.1/"
   xmlns:cc="http://creativecommons.org/ns#"
   xmlns:rdf="http://www.w3.org/1999/02/22-rdf-syntax-ns#"
   xmlns:svg="http://www.w3.org/2000/svg"
   xmlns="http://www.w3.org/2000/svg"
   xmlns:sodipodi="http://sodipodi.sourceforge.net/DTD/sodipodi-0.dtd"
   xmlns:inkscape="http://www.inkscape.org/namespaces/inkscape"
   width="210mm"
   height="297mm"
   viewBox="0 0 744.09448819 1052.3622047"
   id="svg2"
   version="1.1"
   inkscape:version="0.91 r13725"
   sodipodi:docname="Coreblade.svg">
  <defs
     id="defs4" />
  <sodipodi:namedview
     id="base"
     pagecolor="#ffffff"
     bordercolor="#666666"
     borderopacity="1.0"
     inkscape:pageopacity="0.0"
     inkscape:pageshadow="2"
     inkscape:zoom="0.67539063"
     inkscape:cx="159.93276"
     inkscape:cy="369.12343"
     inkscape:document-units="px"
     inkscape:current-layer="layer1"
     showgrid="false"
     inkscape:window-width="1920"
     inkscape:window-height="1137"
     inkscape:window-x="-5"
     inkscape:window-y="-5"
     inkscape:window-maximized="1" />
  <metadata
     id="metadata7">
    <rdf:RDF>
      <cc:Work
         rdf:about="">
        <dc:format>image/svg+xml</dc:format>
        <dc:type
           rdf:resource="http://purl.org/dc/dcmitype/StillImage" />
        <dc:title></dc:title>
      </cc:Work>
    </rdf:RDF>
  </metadata>
  <g
     inkscape:label="Layer 1"
     inkscape:groupmode="layer"
     id="layer1">
    <path
       style="fill:#000000"
       d="m 0.78554498,1050.949 c 0,-1.5336 15.85222002,-27.8796 29.13538002,-48.4223 3.70345,-5.72743 10.95304,-17.28649 16.11019,-25.68677 5.15715,-8.40028 12.12917,-19.49074 15.49337,-24.64544 l 6.11674,-9.37222 6.60555,0 c 11.97283,0 20.93566,-4.57664 27.957085,-14.27554 6.08233,-8.40171 5.48035,-12.7181 -2.419185,-17.34648 -11.92808,-6.9887 -26.97754,-20.05415 -36.0483,-31.29595 -16.90052,-20.94559 -23.07584,-34.96646 -26.29049,-59.69177 -2.06178,-15.85802 -1.7766,-26.85941 0.65724,-25.35427 0.60483,0.37405 2.52871,5.54613 4.27525,11.49351 7.33084,24.96304 19.79493,43.86521 38.39828,58.23216 14.60224,11.27698 25.083415,16.34595 41.093775,19.87397 9.99594,2.20269 23.69231,9.19832 29.99859,15.32221 7.24148,7.03204 12.79508,18.1726 17.29446,34.69276 l 3.58746,13.17197 -3.24025,6.96093 c -1.78215,3.82851 -5.5068,9.46018 -8.27701,12.51483 l -5.03673,5.5539 -4.94662,-5.54231 c -2.72065,-3.04827 -6.81765,-8.8146 -9.10447,-12.81407 -2.28682,-3.99945 -4.79199,-7.66391 -5.56704,-8.1432 -2.6066,-1.612 -13.51644,3.72605 -17.95605,8.78566 -5.98336,6.81898 -8.21668,12.73558 -8.21668,21.76805 0,9.09657 4.50624,5.53318 -49.259865,38.95317 -20.60589,12.8082 -42.26996,26.3347 -48.14238,30.0589 -11.47402,7.2765 -12.21830002,7.5938 -12.21830002,5.2083 z M 339.3604,1044.9497 c -11.42213,-7.2781 -18.65995,-11.8021 -65.88676,-41.1828 -28.6257,-17.80863 -28.46687,-17.66434 -28.48372,-25.87644 -0.0172,-8.39578 -5.01472,-19.32607 -11.23588,-24.57465 -5.55668,-4.68799 -12.83544,-7.98335 -15.38434,-6.96509 -0.99665,0.39816 -4.23333,4.51663 -7.19265,9.15216 -15.22662,23.85111 -39.96072,44.80512 -63.89145,54.12692 -13.01142,5.0683 -49.367925,9.1983 -49.367925,5.608 0,-0.6456 5.775885,-2.8954 12.835315,-4.9997 20.70513,-6.1718 30.32941,-11.9715 46.16147,-27.81727 11.64418,-11.65424 14.96548,-16.00953 20.46713,-26.83909 3.61207,-7.11004 6.5674,-14.00032 6.5674,-15.31176 0,-4.9862 7.34868,-24.60455 11.85944,-31.66044 8.72446,-13.64709 25.06975,-22.36507 52.12034,-27.79905 3.909,-0.78525 12.59593,3.03832 20.38515,8.97258 6.86083,5.22696 5.58271,7.95537 -8.04683,17.1775 -6.48704,4.38933 -11.98744,8.89578 -12.22311,10.01438 -0.64702,3.07104 4.45775,12.09568 9.67838,17.1103 5.62976,5.40756 14.51924,8.73702 23.32747,8.73702 l 6.5578,0 32.72747,52.41496 c 18.0001,28.82827 33.14558,53.50837 33.65664,54.84477 1.57513,4.119 -2.17944,2.8019 -14.63134,-5.1323 z m -114.47716,-30.6286 c -15.36714,-2.453 -36.02962,-11.0214 -37.81692,-15.68191 -0.51657,-1.347 1.3795,-3.97881 5.32514,-7.39155 3.37004,-2.91487 6.5141,-5.31841 6.98678,-5.34118 0.47271,-0.0228 3.90702,2.38503 7.63181,5.35071 10.20246,8.12319 23.35793,14.76283 37.64652,19.00033 7.05942,2.0936 12.83532,4.3347 12.83532,4.9803 0,1.7012 -19.67351,1.1481 -32.60865,-0.9167 z M 36.233325,951.53177 c -1.24258,-7.35939 2.7407,-36.0781 6.23406,-44.9464 4.45585,-11.31172 9.64092,-20.77066 11.85095,-21.61927 2.24657,-0.86264 11.52533,8.55662 11.62674,11.80278 0.0318,1.01698 -2.06305,4.45345 -4.65515,7.63661 -7.42868,9.12266 -14.31188,22.83454 -18.19712,36.25011 -4.77499,16.48791 -5.67187,17.90998 -6.85948,10.87617 z m 278.361255,0.67549 c -0.77013,-2.48893 -1.78307,-6.44834 -2.25099,-8.79867 -0.95469,-4.79557 -5.7737,-16.83647 -9.68146,-24.19041 -4.29857,-8.08936 -12.43684,-18.31634 -21.0514,-26.45431 -15.28399,-14.43841 -25.97474,-20.29492 -49.04345,-26.86647 -26.27162,-7.48397 -36.82938,-17.30537 -44.92304,-41.78982 -6.03014,-18.242 -6.18659,-22.75413 -1.09097,-31.4654 5.55312,-9.49344 9.11406,-13.66007 11.67435,-13.66007 1.98842,0 8.96785,8.58888 16.64231,20.48002 2.09467,3.24556 4.58014,5.89869 5.5233,5.89584 2.18401,-0.007 10.43311,-4.94394 14.73378,-8.81857 4.92836,-4.44018 9.84417,-15.93437 9.88414,-23.11119 0.0191,-3.43648 0.51947,-7.01144 1.11184,-7.94435 1.14122,-1.79734 8.65233,-6.6514 66.26941,-42.82667 19.89234,-12.48954 37.22002,-23.11225 38.50595,-23.60601 3.5419,-1.36002 2.9057,2.21334 -1.64294,9.22773 -2.18955,3.37649 -8.6521,13.63684 -14.36123,22.80078 -5.70913,9.16395 -18.65647,29.93901 -28.77185,46.16683 l -18.39163,29.50511 -6.04795,0 c -12.9494,0 -26.05469,7.87235 -31.66733,19.0226 -3.44226,6.8385 -2.84044,8.27789 5.74197,13.73284 27.94105,17.75936 50.02909,45.45822 58.58195,73.46297 3.4166,11.18701 5.61901,41.31143 3.13273,42.84901 -0.85589,0.52927 -2.06623,-0.98995 -2.87749,-3.61179 z M 95.656585,866.49397 c -10.5753,-5.28787 -15.57543,-10.33383 -13.51406,-13.63792 0.81236,-1.30207 6.41126,-5.72864 12.44199,-9.83677 12.330585,-8.39959 13.652495,-11.19054 8.925365,-18.84403 -6.349015,-10.2794 -19.182835,-17.42362 -31.299625,-17.42362 -2.55119,0 -5.38947,-1.10543 -6.77679,-2.63938 -2.30168,-2.54491 -10.64603,-15.59865 -25.82707,-40.40337 -3.97273,-6.49113 -11.00392,-17.73779 -15.62488,-24.99257 C 0.90905498,702.49317 -0.70885502,699.74673 0.17850498,698.31004 1.270075,696.54273 10.030055,701.79866 94.977635,755.18888 c 14.763385,9.2789 15.428455,10.07617 15.428455,18.49519 0,12.45365 7.87855,24.03467 20.42283,30.02038 5.60688,2.67543 5.59206,2.68758 14.26722,-11.69373 10.91893,-18.10097 40.66801,-42.88166 61.05448,-50.85779 9.44802,-3.69651 32.79664,-8.00559 43.18124,-7.96927 11.32125,0.0395 10.24384,2.10583 -3.23763,6.2091 -26.83893,8.16882 -41.12523,17.55312 -57.81303,37.97594 -9.37448,11.47265 -14.20155,21.26722 -19.5712,39.71191 -2.41193,8.28493 -5.37745,16.69176 -6.59001,18.68185 -11.5084,18.8878 -20.5023,25.11675 -45.46969,31.49124 -4.57909,1.16909 -9.30586,2.41151 -10.50394,2.76091 -1.19808,0.34939 -5.91848,-1.23488 -10.489775,-3.52064 z m 197.386295,-6.17259 c -2.76306,-3.37407 -5.02375,-6.54561 -5.02375,-7.04782 0,-0.50224 2.71896,-4.45838 6.04212,-8.79143 9.27195,-12.08962 16.18531,-26.6051 18.93215,-39.75057 3.48183,-16.66282 6.37368,-12.46772 5.07409,7.36077 -0.48317,7.37206 -1.85145,17.14031 -3.04062,21.70725 -3.61164,13.8703 -12.72056,32.65652 -15.83426,32.65652 -0.61928,0 -3.38665,-2.76062 -6.14973,-6.13472 z M 145.78994,758.01721 c -8.981,-7.18048 -21.92758,-13.68989 -37.16128,-18.68431 -10.406225,-3.41171 -11.722535,-4.17242 -9.019405,-5.21241 3.899245,-1.50019 21.541535,-0.19053 34.676065,2.57414 9.97261,2.09913 31.80773,11.44416 33.62875,14.3925 1.17737,1.90622 -9.95211,12.51575 -13.10472,12.4925 -1.14477,-0.009 -5.20351,-2.51154 -9.01941,-5.56242 z"
       id="path4149"
       inkscape:connector-curvature="0" />
  </g>
</svg>
