999
Inkscape export via OpenSCAD DXF Export
  0
SECTION
  2
HEADER
  9
$ACADVER
  1
AC1014
  9
$HANDSEED
  5
FFFF
  9
$MEASUREMENT
 70
     1
  0
ENDSEC
  0
SECTION
  2
TABLES
  0
TABLE
  2
VPORT
  5
8
330
0
100
AcDbSymbolTable
 70
     4
  0
VPORT
  5
2E
330
8
100
AcDbSymbolTableRecord
100
AcDbViewportTableRecord
  2
*ACTIVE
 70
     0
 10
0.0
 20
0.0
 11
1.0
 21
1.0
 12
210.0
 22
148.5
 13
0.0
 23
0.0
 14
10.0
 24
10.0
 15
10.0
 25
10.0
 16
0.0
 26
0.0
 36
1.0
 17
0.0
 27
0.0
 37
0.0
 40
341.0
 41
1.24
 42
50.0
 43
0.0
 44
0.0
 50
0.0
 51
0.0
 71
     0
 72
   100
 73
     1
 74
     3
 75
     0
 76
     0
 77
     0
 78
     0
  0
ENDTAB
  0
TABLE
  2
LTYPE
  5
5
330
0
100
AcDbSymbolTable
 70
     1
  0
LTYPE
  5
14
330
5
100
AcDbSymbolTableRecord
100
AcDbLinetypeTableRecord
  2
BYBLOCK
 70
     0
  3

 72
    65
 73
     0
 40
0.0
  0
LTYPE
  5
15
330
5
100
AcDbSymbolTableRecord
100
AcDbLinetypeTableRecord
  2
BYLAYER
 70
     0
  3

 72
    65
 73
     0
 40
0.0
  0
LTYPE
  5
16
330
5
100
AcDbSymbolTableRecord
100
AcDbLinetypeTableRecord
  2
CONTINUOUS
 70
     0
  3
Solid line
 72
    65
 73
     0
 40
0.0
  0
ENDTAB
  0
TABLE
0
TABLE
2
LAYER
5
2
330
0
100
AcDbSymbolTable
70
1
0
LAYER
5
10
330
2
100
AcDbSymbolTableRecord
100
AcDbLayerTableRecord
2
Layer_1
70
0
62
7
6
CONTINUOUS
0
ENDTAB
0
ENDSEC
  0
ENDTAB
  0
TABLE
  2
STYLE
  5
3
330
0
100
AcDbSymbolTable
 70
     1
  0
STYLE
  5
11
330
3
100
AcDbSymbolTableRecord
100
AcDbTextStyleTableRecord
  2
STANDARD
 70
     0
 40
0.0
 41
1.0
 50
0.0
 71
     0
 42
2.5
  3
txt
  4

  0
ENDTAB
  0
TABLE
  2
VIEW
  5
6
330
0
100
AcDbSymbolTable
 70
     0
  0
ENDTAB
  0
TABLE
  2
UCS
  5
7
330
0
100
AcDbSymbolTable
 70
     0
  0
ENDTAB
  0
TABLE
  2
APPID
  5
9
330
0
100
AcDbSymbolTable
 70
     2
  0
APPID
  5
12
330
9
100
AcDbSymbolTableRecord
100
AcDbRegAppTableRecord
  2
ACAD
 70
     0
  0
ENDTAB
  0
TABLE
  2
DIMSTYLE
  5
A
330
0
100
AcDbSymbolTable
 70
     1
  0
DIMSTYLE
105
27
330
A
100
AcDbSymbolTableRecord
100
AcDbDimStyleTableRecord
  2
ISO-25
 70
     0
  3

  4

  5

  6

  7

 40
1.0
 41
2.5
 42
0.625
 43
3.75
 44
1.25
 45
0.0
 46
0.0
 47
0.0
 48
0.0
140
2.5
141
2.5
142
0.0
143
0.03937007874016
144
1.0
145
0.0
146
1.0
147
0.625
 71
     0
 72
     0
 73
     0
 74
     0
 75
     0
 76
     0
 77
     1
 78
     8
170
     0
171
     3
172
     1
173
     0
174
     0
175
     0
176
     0
177
     0
178
     0
270
     2
271
     2
272
     2
273
     2
274
     3
340
11
275
     0
280
     0
281
     0
282
     0
283
     0
284
     8
285
     0
286
     0
287
     3
288
     0
  0
ENDTAB
  0
TABLE
  2
BLOCK_RECORD
  5
1
330
0
100
AcDbSymbolTable
 70
     1
  0
BLOCK_RECORD
  5
1F
330
1
100
AcDbSymbolTableRecord
100
AcDbBlockTableRecord
  2
*MODEL_SPACE
  0
BLOCK_RECORD
  5
1B
330
1
100
AcDbSymbolTableRecord
100
AcDbBlockTableRecord
  2
*PAPER_SPACE
  0
ENDTAB
  0
ENDSEC
  0
SECTION
  2
BLOCKS
  0
BLOCK
  5
20
330
1F
100
AcDbEntity
  8
0
100
AcDbBlockBegin
  2
*MODEL_SPACE
 70
     0
 10
0.0
 20
0.0
 30
0.0
  3
*MODEL_SPACE
  1

  0
ENDBLK
  5
21
330
1F
100
AcDbEntity
  8
0
100
AcDbBlockEnd
  0
BLOCK
  5
1C
330
1B
100
AcDbEntity
 67
     1
  8
0
100
AcDbBlockBegin
  2
*PAPER_SPACE
  1

  0
ENDBLK
  5
1D
330
1B
100
AcDbEntity
 67
     1
  8
0
100
AcDbBlockEnd
  0
ENDSEC
  0
SECTION
  2
ENTITIES
0
DIMENSION
5
83
100
AcDbEntity
62
256
370
-1
6
ByLayer
1
total_width
3
Standard
70
0
71
5
72
1
41
1.0
100
AcDbAlignedDimension
13
0.050378
23
0.000000
33
0.0
14
99.940858
24
0.000000
34
0.0
50
0.000000
100
AcDbRotatedDimension
0
DIMENSION
5
83
100
AcDbEntity
62
256
370
-1
6
ByLayer
1
total_minx
3
Standard
70
0
71
5
72
1
41
1.0
100
AcDbAlignedDimension
13
0.050378
23
0.000000
33
0.0
14
0.000000
24
0.000000
34
0.0
50
0.000000
100
AcDbRotatedDimension
0
DIMENSION
5
83
100
AcDbEntity
62
256
370
-1
6
ByLayer
1
total_maxx
3
Standard
70
0
71
5
72
1
41
1.0
100
AcDbAlignedDimension
13
0.000000
23
0.000000
33
0.0
14
99.940858
24
0.000000
34
0.0
50
0.000000
100
AcDbRotatedDimension
0
DIMENSION
5
83
100
AcDbEntity
62
256
370
-1
6
ByLayer
1
total_height
3
Standard
70
0
71
5
72
1
41
1.0
100
AcDbAlignedDimension
13
0.000000
23
0.055700
33
0.0
14
0.000000
24
99.992856
34
0.0
50
90.000000
100
AcDbRotatedDimension
0
DIMENSION
5
83
100
AcDbEntity
62
256
370
-1
6
ByLayer
1
total_miny
3
Standard
70
0
71
5
72
1
41
1.0
100
AcDbAlignedDimension
13
0.055700
23
0.000000
33
0.0
14
0.000000
24
0.000000
34
0.0
50
0.000000
100
AcDbRotatedDimension
0
DIMENSION
5
83
100
AcDbEntity
62
256
370
-1
6
ByLayer
1
total_maxy
3
Standard
70
0
71
5
72
1
41
1.0
100
AcDbAlignedDimension
13
0.000000
23
0.000000
33
0.0
14
99.992856
24
0.000000
34
0.0
50
0.000000
100
AcDbRotatedDimension
0
DIMENSION
8
Layer_1
5
83
100
AcDbEntity
62
256
370
-1
6
ByLayer
1
Layer_1_width
3
Standard
70
0
71
5
72
1
41
1.0
100
AcDbAlignedDimension
13
0.050378
23
0.000000
33
0.0
14
99.940858
24
0.000000
34
0.0
50
0.000000
100
AcDbRotatedDimension
0
DIMENSION
8
Layer_1
5
83
100
AcDbEntity
62
256
370
-1
6
ByLayer
1
Layer_1_minx
3
Standard
70
0
71
5
72
1
41
1.0
100
AcDbAlignedDimension
13
0.050378
23
0.000000
33
0.0
14
0.000000
24
0.000000
34
0.0
50
0.000000
100
AcDbRotatedDimension
0
DIMENSION
8
Layer_1
5
83
100
AcDbEntity
62
256
370
-1
6
ByLayer
1
Layer_1_maxx
3
Standard
70
0
71
5
72
1
41
1.0
100
AcDbAlignedDimension
13
0.000000
23
0.000000
33
0.0
14
99.940858
24
0.000000
34
0.0
50
0.000000
100
AcDbRotatedDimension
0
DIMENSION
8
Layer_1
5
83
100
AcDbEntity
62
256
370
-1
6
ByLayer
1
Layer_1_height
3
Standard
70
0
71
5
72
1
41
1.0
100
AcDbAlignedDimension
13
0.000000
23
0.055700
33
0.0
14
0.000000
24
99.992856
34
0.0
50
90.000000
100
AcDbRotatedDimension
0
DIMENSION
8
Layer_1
5
83
100
AcDbEntity
62
256
370
-1
6
ByLayer
1
Layer_1_miny
3
Standard
70
0
71
5
72
1
41
1.0
100
AcDbAlignedDimension
13
0.055700
23
0.000000
33
0.0
14
0.000000
24
0.000000
34
0.0
50
0.000000
100
AcDbRotatedDimension
0
DIMENSION
8
Layer_1
5
83
100
AcDbEntity
62
256
370
-1
6
ByLayer
1
Layer_1_maxy
3
Standard
70
0
71
5
72
1
41
1.0
100
AcDbAlignedDimension
13
0.000000
23
0.000000
33
0.0
14
99.992856
24
0.000000
34
0.0
50
0.000000
100
AcDbRotatedDimension
62
0
0
LWPOLYLINE
100
AcDbPolyline
8
Layer_1
90
85
70
0
10
0.221698
20
0.398838
30
0.0
10
0.979312
20
1.901433
30
0.0
10
2.927223
20
5.219966
30
0.0
10
8.444350
20
14.064687
30
0.0
10
12.991004
20
21.314064
30
0.0
10
17.363577
20
28.269555
30
0.0
10
19.089857
20
30.914604
30
0.0
10
20.954090
20
30.914604
30
0.0
10
23.333772
20
31.159190
30
0.0
10
25.423169
20
31.902574
30
0.0
10
27.250554
20
33.159191
30
0.0
10
28.844200
20
34.943478
30
0.0
10
29.775211
20
36.525050
30
0.0
10
29.970363
20
37.190057
30
0.0
10
29.982574
20
37.790604
30
0.0
10
29.809817
20
38.341232
30
0.0
10
29.450063
20
38.856485
30
0.0
10
28.161453
20
39.839041
30
0.0
10
25.511632
20
41.605038
30
0.0
10
22.772237
20
43.805127
30
0.0
10
20.184043
20
46.230276
30
0.0
10
17.987821
20
48.671453
30
0.0
10
14.943847
20
52.816243
30
0.0
10
13.783317
20
54.759575
30
0.0
10
12.829520
20
56.694605
30
0.0
10
12.056775
20
58.679637
30
0.0
10
11.439403
20
60.772977
30
0.0
10
10.568061
20
65.517797
30
0.0
10
10.254970
20
68.583681
30
0.0
10
10.185018
20
70.933167
30
0.0
10
10.352960
20
72.363854
30
0.0
10
10.524501
20
72.671395
30
0.0
10
10.753549
20
72.673336
30
0.0
10
11.236003
20
71.641318
30
0.0
10
11.960119
20
69.429612
30
0.0
10
12.804430
20
66.867029
30
0.0
10
13.787884
20
64.459761
30
0.0
10
14.913811
20
62.202763
30
0.0
10
16.185536
20
60.090987
30
0.0
10
17.606387
20
58.119389
30
0.0
10
19.179691
20
56.282923
30
0.0
10
20.908775
20
54.576542
30
0.0
10
22.796967
20
52.995202
30
0.0
10
25.712256
20
50.916168
30
0.0
10
28.446729
20
49.370666
30
0.0
10
31.255715
20
48.235213
30
0.0
10
34.394544
20
47.386326
30
0.0
10
36.657259
20
46.691443
30
0.0
10
39.018167
20
45.639186
30
0.0
10
41.183830
20
44.379431
30
0.0
10
42.860812
20
43.062058
30
0.0
10
44.307070
20
41.350595
30
0.0
10
45.591458
20
39.170683
30
0.0
10
46.730744
20
36.488692
30
0.0
10
47.741693
20
33.270990
30
0.0
10
48.754154
20
29.553567
30
0.0
10
47.839684
20
27.589038
30
0.0
10
46.776275
20
25.741156
30
0.0
10
45.503727
20
24.057075
30
0.0
10
44.082250
20
22.489641
30
0.0
10
42.686204
20
24.053804
30
0.0
10
41.355549
20
25.761343
30
0.0
10
40.116720
20
27.670219
30
0.0
10
39.171154
20
29.191866
30
0.0
10
38.545578
20
29.968411
30
0.0
10
38.168011
20
30.051056
30
0.0
10
37.619615
20
29.973720
30
0.0
10
36.205773
20
29.434736
30
0.0
10
34.694935
20
28.542712
30
0.0
10
33.477982
20
27.488903
30
0.0
10
32.403255
20
26.075584
30
0.0
10
31.685278
20
24.651450
30
0.0
10
31.283920
20
23.110186
30
0.0
10
31.159052
20
21.345476
30
0.0
10
31.184061
20
20.522872
30
0.0
10
31.120671
20
19.871044
30
0.0
10
30.761254
20
19.225809
30
0.0
10
29.898184
20
18.422979
30
0.0
10
25.830574
20
15.687799
30
0.0
10
17.256824
20
10.352025
30
0.0
10
3.669974
20
1.868736
30
0.0
10
0.731502
20
0.111225
30
0.0
10
0.305116
20
0.055700
30
0.0
10
0.221698
20
0.398838
30
0.0
10
0.221698
20
0.398838
30
0.0
62
0
0
LWPOLYLINE
100
AcDbPolyline
8
Layer_1
90
84
70
0
10
95.775046
20
2.091974
30
0.0
10
77.180338
20
13.714675
30
0.0
10
72.516707
20
16.650176
30
0.0
10
70.133199
20
18.381761
30
0.0
10
69.557042
20
19.013616
30
0.0
10
69.263576
20
19.605529
30
0.0
10
69.141600
20
21.017581
30
0.0
10
68.890983
20
22.892575
30
0.0
10
68.212678
20
24.818416
30
0.0
10
67.206080
20
26.577718
30
0.0
10
65.970585
20
27.953094
30
0.0
10
64.731745
20
28.858811
30
0.0
10
63.481360
20
29.539857
30
0.0
10
62.390136
20
29.918947
30
0.0
10
61.628782
20
29.918797
30
0.0
10
60.821535
20
29.075780
30
0.0
10
59.598856
20
27.335854
30
0.0
10
57.867280
20
24.854753
30
0.0
10
55.918252
20
22.479193
30
0.0
10
53.785875
20
20.238065
30
0.0
10
51.504248
20
18.160259
30
0.0
10
49.107473
20
16.274663
30
0.0
10
46.629651
20
14.610167
30
0.0
10
44.104883
20
13.195661
30
0.0
10
41.567269
20
12.060034
30
0.0
10
39.914300
20
11.539790
30
0.0
10
37.841109
20
11.066802
30
0.0
10
33.223865
20
10.352315
30
0.0
10
29.295141
20
10.096011
30
0.0
10
28.082602
20
10.195753
30
0.0
10
27.750672
20
10.312411
30
0.0
10
27.634544
20
10.477332
30
0.0
10
28.698626
20
11.028466
30
0.0
10
31.256955
20
11.888358
30
0.0
10
35.129417
20
13.220974
30
0.0
10
38.286585
20
14.789856
30
0.0
10
41.185885
20
16.870652
30
0.0
10
44.284748
20
19.739010
30
0.0
10
46.355330
20
21.880324
30
0.0
10
47.822971
20
23.613583
30
0.0
10
48.965571
20
25.303202
30
0.0
10
50.061027
20
27.313598
30
0.0
10
51.370037
20
30.087942
30
0.0
10
51.914493
20
31.634917
30
0.0
10
52.258440
20
33.344693
30
0.0
10
53.110603
20
35.883514
30
0.0
10
54.201460
20
38.531857
30
0.0
10
55.261490
20
40.570196
30
0.0
10
56.287346
20
41.950212
30
0.0
10
57.525038
20
43.205253
30
0.0
10
58.984767
20
44.340759
30
0.0
10
60.676734
20
45.362172
30
0.0
10
62.611140
20
46.274932
30
0.0
10
64.798187
20
47.084481
30
0.0
10
67.248076
20
47.796259
30
0.0
10
69.971008
20
48.415706
30
0.0
10
71.026218
20
48.349050
30
0.0
10
72.436923
20
47.860724
30
0.0
10
74.052957
20
47.016823
30
0.0
10
75.724151
20
45.883445
30
0.0
10
76.727098
20
44.869633
30
0.0
10
76.870727
20
44.387538
30
0.0
10
76.757218
20
43.882331
30
0.0
10
76.372638
20
43.324270
30
0.0
10
75.703056
20
42.683617
30
0.0
10
73.453157
20
41.035572
30
0.0
10
71.066737
20
39.276280
30
0.0
10
70.003523
20
38.209292
30
0.0
10
70.146083
20
37.288147
30
0.0
10
70.748257
20
36.000534
30
0.0
10
71.660928
20
34.610073
30
0.0
10
72.734977
20
33.380385
30
0.0
10
74.084370
20
32.351269
30
0.0
10
75.690354
20
31.575194
30
0.0
10
77.464532
20
31.085270
30
0.0
10
79.318508
20
30.914604
30
0.0
10
81.169264
20
30.914604
30
0.0
10
90.405684
20
16.121937
30
0.0
10
99.904336
20
0.643524
30
0.0
10
99.940858
20
0.064538
30
0.0
10
99.324218
20
0.092119
30
0.0
10
97.965315
20
0.757515
30
0.0
10
95.775046
20
2.091974
30
0.0
10
95.775046
20
2.091974
30
0.0
62
0
0
LWPOLYLINE
100
AcDbPolyline
8
Layer_1
90
23
70
0
10
63.467048
20
10.736045
30
0.0
10
60.040710
20
11.534670
30
0.0
10
56.693460
20
12.715309
30
0.0
10
54.064811
20
14.012761
30
0.0
10
53.219808
20
14.622418
30
0.0
10
52.794273
20
15.161829
30
0.0
10
52.811000
20
15.512709
30
0.0
10
53.073458
20
15.986234
30
0.0
10
54.297145
20
17.247888
30
0.0
10
56.268970
20
18.755288
30
0.0
10
58.422836
20
17.245199
30
0.0
10
60.730595
20
15.608345
30
0.0
10
63.302730
20
14.152805
30
0.0
10
66.091089
20
12.902883
30
0.0
10
69.047521
20
11.882883
30
0.0
10
71.605849
20
11.026861
30
0.0
10
72.669933
20
10.477332
30
0.0
10
72.424228
20
10.326702
30
0.0
10
71.745346
20
10.233260
30
0.0
10
69.437460
20
10.208120
30
0.0
10
66.445089
20
10.382265
30
0.0
10
63.467048
20
10.736045
30
0.0
10
63.467048
20
10.736045
30
0.0
62
0
0
LWPOLYLINE
100
AcDbPolyline
8
Layer_1
90
25
70
0
10
10.225849
20
28.456589
30
0.0
10
10.214167
20
30.962867
30
0.0
10
10.604324
20
34.639333
30
0.0
10
11.245092
20
38.395645
30
0.0
10
11.985240
20
41.141462
30
0.0
10
13.895223
20
45.299527
30
0.0
10
14.720957
20
46.637447
30
0.0
10
15.329841
20
47.242901
30
0.0
10
15.651698
20
47.207246
30
0.0
10
16.106006
20
46.953971
30
0.0
10
17.197533
20
46.012245
30
0.0
10
18.175545
20
44.853096
30
0.0
10
18.611166
20
43.911894
30
0.0
10
18.231968
20
43.063537
30
0.0
10
17.297379
20
41.756673
30
0.0
10
15.764655
20
39.604407
30
0.0
10
14.354549
20
37.095712
30
0.0
10
13.131950
20
34.359851
30
0.0
10
12.161747
20
31.526086
30
0.0
10
11.337874
20
28.804231
30
0.0
10
10.814134
20
27.501956
30
0.0
10
10.630345
20
27.328508
30
0.0
10
10.480226
20
27.444371
30
0.0
10
10.225849
20
28.456589
30
0.0
10
10.225849
20
28.456589
30
0.0
62
0
0
LWPOLYLINE
100
AcDbPolyline
8
Layer_1
90
84
70
0
10
88.785581
20
28.265951
30
0.0
10
88.150302
20
30.749131
30
0.0
10
87.096674
20
33.891906
30
0.0
10
85.417979
20
37.576203
30
0.0
10
84.319763
20
39.382928
30
0.0
10
82.904168
20
41.304055
30
0.0
10
81.260186
20
43.227755
30
0.0
10
79.476806
20
45.042197
30
0.0
10
76.409915
20
47.685198
30
0.0
10
73.380113
20
49.665930
30
0.0
10
69.938369
20
51.230374
30
0.0
10
65.635655
20
52.624512
30
0.0
10
63.055819
20
53.454281
30
0.0
10
60.847926
20
54.386660
30
0.0
10
58.968153
20
55.462412
30
0.0
10
57.372680
20
56.722302
30
0.0
10
56.017687
20
58.207094
30
0.0
10
54.859352
20
59.957553
30
0.0
10
53.853855
20
62.014442
30
0.0
10
52.957374
20
64.418527
30
0.0
10
51.989070
20
67.632274
30
0.0
10
51.625950
20
69.867314
30
0.0
10
51.666195
20
70.766060
30
0.0
10
51.851569
20
71.598020
30
0.0
10
52.649478
20
73.298763
30
0.0
10
54.613600
20
76.231073
30
0.0
10
55.344988
20
76.928338
30
0.0
10
55.944239
20
77.153938
30
0.0
10
56.610285
20
76.722755
30
0.0
10
57.690882
20
75.522458
30
0.0
10
60.641069
20
71.374021
30
0.0
10
61.542336
20
70.198262
30
0.0
10
62.199867
20
69.710084
30
0.0
10
62.938937
20
69.946018
30
0.0
10
64.054954
20
70.545158
30
0.0
10
66.358067
20
72.198880
30
0.0
10
67.379127
20
73.461849
30
0.0
10
68.270184
20
75.170498
30
0.0
10
68.902563
20
77.023962
30
0.0
10
69.147591
20
78.721372
30
0.0
10
69.243813
20
80.107369
30
0.0
10
69.461377
20
80.963444
30
0.0
10
70.232873
20
81.630271
30
0.0
10
72.835699
20
83.368432
30
0.0
10
88.164077
20
93.050082
30
0.0
10
99.031312
20
99.712223
30
0.0
10
99.561095
20
99.745616
30
0.0
10
99.655724
20
99.296379
30
0.0
10
99.322229
20
98.403996
30
0.0
10
98.567638
20
97.107952
30
0.0
10
94.514580
20
90.673065
30
0.0
10
86.394524
20
77.643760
30
0.0
10
81.203998
20
69.316762
30
0.0
10
79.497132
20
69.316762
30
0.0
10
78.128807
20
69.215150
30
0.0
10
76.781654
20
68.920444
30
0.0
10
75.480968
20
68.447839
30
0.0
10
74.252046
20
67.812530
30
0.0
10
73.120182
20
67.029713
30
0.0
10
72.110674
20
66.114582
30
0.0
10
71.248817
20
65.082333
30
0.0
10
70.559907
20
63.948162
30
0.0
10
70.062654
20
62.744866
30
0.0
10
70.007074
20
62.279653
30
0.0
10
70.097552
20
61.863880
30
0.0
10
70.768756
20
61.056106
30
0.0
10
72.180419
20
60.072449
30
0.0
10
75.055848
20
58.066736
30
0.0
10
77.751010
20
55.829901
30
0.0
10
80.240496
20
53.393806
30
0.0
10
82.498900
20
50.790312
30
0.0
10
84.500814
20
48.051279
30
0.0
10
86.220831
20
45.208570
30
0.0
10
87.633545
20
42.294046
30
0.0
10
88.713547
20
39.339566
30
0.0
10
89.357155
20
36.179113
30
0.0
10
89.780332
20
32.271864
30
0.0
10
89.891147
20
28.875230
30
0.0
10
89.800692
20
27.761335
30
0.0
10
89.597673
20
27.246624
30
0.0
10
89.401076
20
27.238823
30
0.0
10
89.186904
20
27.422795
30
0.0
10
88.785581
20
28.265951
30
0.0
10
88.785581
20
28.265951
30
0.0
62
0
0
LWPOLYLINE
100
AcDbPolyline
8
Layer_1
90
95
70
0
10
26.996414
20
52.456146
30
0.0
10
25.059549
20
53.555997
30
0.0
10
23.752049
20
54.590558
30
0.0
10
23.113239
20
55.520145
30
0.0
10
23.056883
20
55.933171
30
0.0
10
23.182446
20
56.305070
30
0.0
10
24.385871
20
57.396173
30
0.0
10
26.693852
20
59.081225
30
0.0
10
28.743154
20
60.608523
30
0.0
10
29.371906
20
61.236157
30
0.0
10
29.758595
20
61.819290
30
0.0
10
29.919625
20
62.392552
30
0.0
10
29.871399
20
62.990575
30
0.0
10
29.212788
20
64.399429
30
0.0
10
28.459032
20
65.443647
30
0.0
10
27.557517
20
66.391654
30
0.0
10
26.532063
20
67.230191
30
0.0
10
25.406486
20
67.945999
30
0.0
10
24.204607
20
68.525819
30
0.0
10
22.950244
20
68.956393
30
0.0
10
21.667215
20
69.224460
30
0.0
10
20.379339
20
69.316762
30
0.0
10
19.299882
20
69.526865
30
0.0
10
18.466778
20
70.061654
30
0.0
10
16.185357
20
73.407188
30
0.0
10
11.177805
20
81.464383
30
0.0
10
6.768116
20
88.517841
30
0.0
10
0.873500
20
97.901181
30
0.0
10
0.078685
20
99.406134
30
0.0
10
0.050378
20
99.921389
30
0.0
10
0.305118
20
99.992856
30
0.0
10
0.989364
20
99.742535
30
0.0
10
4.552828
20
97.732658
30
0.0
10
26.804799
20
83.868916
30
0.0
10
29.242917
20
82.282690
30
0.0
10
30.544384
20
81.168035
30
0.0
10
30.879943
20
80.654400
30
0.0
10
31.064622
20
80.098882
30
0.0
10
31.159052
20
78.649162
30
0.0
10
31.261508
20
77.345299
30
0.0
10
31.561791
20
76.080142
30
0.0
10
32.049276
20
74.869313
30
0.0
10
32.713337
20
73.728430
30
0.0
10
33.543349
20
72.673112
30
0.0
10
34.528685
20
71.718979
30
0.0
10
35.658720
20
70.881650
30
0.0
10
36.922829
20
70.176744
30
0.0
10
37.875247
20
69.803103
30
0.0
10
38.246677
20
69.818970
30
0.0
10
38.611366
20
70.021688
30
0.0
10
39.509847
20
71.142858
30
0.0
10
40.949355
20
73.476975
30
0.0
10
42.338509
20
75.468083
30
0.0
10
44.132635
20
77.558256
30
0.0
10
46.238493
20
79.669825
30
0.0
10
48.562839
20
81.725119
30
0.0
10
51.012434
20
83.646471
30
0.0
10
53.494034
20
85.356210
30
0.0
10
55.914399
20
86.776667
30
0.0
10
58.180286
20
87.830173
30
0.0
10
60.797225
20
88.623153
30
0.0
10
64.174517
20
89.349783
30
0.0
10
67.601371
20
89.878885
30
0.0
10
70.366992
20
90.079278
30
0.0
10
72.107203
20
89.963620
30
0.0
10
72.485193
20
89.825267
30
0.0
10
72.535081
20
89.633188
30
0.0
10
71.650481
20
89.087714
30
0.0
10
69.453260
20
88.326932
30
0.0
10
66.770625
20
87.440904
30
0.0
10
64.370653
20
86.490229
30
0.0
10
62.203888
20
85.442419
30
0.0
10
60.220872
20
84.264987
30
0.0
10
58.372146
20
82.925444
30
0.0
10
56.608254
20
81.391303
30
0.0
10
54.879737
20
79.630077
30
0.0
10
53.137139
20
77.609278
30
0.0
10
51.371062
20
75.224154
30
0.0
10
49.951580
20
72.743360
30
0.0
10
48.744021
20
69.893630
30
0.0
10
47.613711
20
66.401695
30
0.0
10
46.556854
20
63.099274
30
0.0
10
45.753864
20
61.129261
30
0.0
10
44.558965
20
59.290711
30
0.0
10
43.369451
20
57.744744
30
0.0
10
42.124176
20
56.449014
30
0.0
10
40.761995
20
55.361172
30
0.0
10
39.221763
20
54.438871
30
0.0
10
37.442334
20
53.639763
30
0.0
10
35.362564
20
52.921500
30
0.0
10
32.921307
20
52.241734
30
0.0
10
29.956862
20
51.462543
30
0.0
10
28.833636
20
51.680458
30
0.0
10
26.996414
20
52.456146
30
0.0
10
26.996414
20
52.456146
30
0.0
62
0
0
LWPOLYLINE
100
AcDbPolyline
8
Layer_1
90
23
70
0
10
82.703213
20
54.198188
30
0.0
10
81.285399
20
56.187240
30
0.0
10
82.990619
20
58.668377
30
0.0
10
84.820401
20
61.338976
30
0.0
10
86.352730
20
64.165880
30
0.0
10
87.539773
20
67.048655
30
0.0
10
88.333693
20
69.886871
30
0.0
10
89.023579
20
72.333142
30
0.0
10
89.315330
20
72.771676
30
0.0
10
89.555737
20
72.710181
30
0.0
10
89.732890
20
72.165937
30
0.0
10
89.834878
20
71.156223
30
0.0
10
89.765714
20
67.809498
30
0.0
10
89.411367
20
64.449489
30
0.0
10
88.907583
20
61.683230
30
0.0
10
87.902901
20
58.591735
30
0.0
10
86.620495
20
55.607092
30
0.0
10
85.364438
20
53.356418
30
0.0
10
84.841313
20
52.702295
30
0.0
10
84.438803
20
52.466834
30
0.0
10
83.797894
20
52.975419
30
0.0
10
82.703213
20
54.198188
30
0.0
10
82.703213
20
54.198188
30
0.0
62
0
0
LWPOLYLINE
100
AcDbPolyline
8
Layer_1
90
24
70
0
10
41.145161
20
83.070699
30
0.0
10
39.041739
20
84.551335
30
0.0
10
36.563035
20
85.938620
30
0.0
10
33.753460
20
87.210227
30
0.0
10
30.657422
20
88.343826
30
0.0
10
27.997277
20
89.330362
30
0.0
10
27.774838
20
89.596610
30
0.0
10
28.111945
20
89.814884
30
0.0
10
29.584041
20
89.989711
30
0.0
10
32.027722
20
89.903009
30
0.0
10
34.960105
20
89.590624
30
0.0
10
37.898301
20
89.088404
30
0.0
10
40.496328
20
88.320820
30
0.0
10
43.506402
20
87.147337
30
0.0
10
46.085120
20
85.928918
30
0.0
10
47.389082
20
85.026521
30
0.0
10
47.362058
20
84.720300
30
0.0
10
47.076500
20
84.247754
30
0.0
10
45.998117
20
83.059488
30
0.0
10
44.690605
20
81.973323
30
0.0
10
43.690639
20
81.500860
30
0.0
10
42.700594
20
81.963847
30
0.0
10
41.145161
20
83.070699
30
0.0
10
41.145161
20
83.070699
30
0.0
  0
ENDSEC
  0
SECTION
  2
OBJECTS
  0
DICTIONARY
  5
C
330
0
100
AcDbDictionary
  3
ACAD_GROUP
350
D
  3
ACAD_MLINESTYLE
350
17
  0
DICTIONARY
  5
D
330
C
100
AcDbDictionary
  0
DICTIONARY
  5
1A
330
C
100
AcDbDictionary
  0
DICTIONARY
  5
17
330
C
100
AcDbDictionary
  3
STANDARD
350
18
  0
DICTIONARY
  5
19
330
C
100
AcDbDictionary
  0
ENDSEC
  0
EOF
